<svg version="1.2" xmlns="http://www.w3.org/2000/svg" viewBox="0 0 1043 113" width="1043" height="113">
	<title>New Project</title>
	<style>
		.s0 { fill: #ffffff } 
	</style>
	<path id="Elliottsmithfans" class="s0" aria-label="Elliottsmithfans"  d="m67.6 101.3h-55.1v-38.6h52.1v-10.6h-52.1v-37.2h55.1v-10.2h-67.4v106.9h67.4zm36.9-100.2h-12v110.4h12zm35.4 0h-12v110.5h12zm36.9 16.7v-13.8h-14.6v13.8zm-1.5 18.2h-12v75.5h12zm19.4 37.5c0 12 3.2 21.5 9.6 28.6 6.5 7.1 15.1 10.7 25.8 10.7 10.8 0 19.4-3.6 25.9-10.7 6.6-7.1 9.9-16.6 9.9-28.6 0-11.9-3.3-21.4-9.9-28.5-6.5-7.1-15.1-10.7-25.9-10.7-10.7 0-19.3 3.6-25.8 10.7-6.4 7.1-9.6 16.6-9.6 28.5zm58.9 0c0 19.4-7.9 29-23.5 29-15.4 0-23.1-9.6-23.1-29 0-9.1 2-16.3 6-21.3 4-5.1 9.7-7.7 17.1-7.7 7.4 0 13.2 2.6 17.3 7.7 4.1 5 6.2 12.2 6.2 21.3zm69.1-37.5h-21.7v-23.4l-12 4.1v19.3h-14.6v9.7h14.6v43.1c0 7.6 2 13.5 6 17.7 4 4.2 9.6 6.3 16.9 6.3 3.8 0 7.3-0.6 10.5-1.8v-10.2c-2.9 1-5.7 1.5-8.2 1.5-8.8 0-13.2-5.1-13.2-15.3v-41.3h21.7zm50.7 0h-21.7v-23.4l-12 4.1v19.3h-14.7v9.7h14.7v43c0 7.7 2 13.6 6 17.8 4 4.2 9.6 6.3 16.8 6.3 3.8 0 7.4-0.6 10.6-1.8v-10.2c-2.9 0.9-5.7 1.4-8.2 1.4-8.8 0-13.2-5.1-13.2-15.2v-41.3h21.7zm8.2 66.8c7.6 6.6 17.7 9.9 30.2 9.9 8.9 0 16.1-1.9 21.5-5.8 5.4-3.9 8-9.2 8-15.8 0-10.2-6.9-17-20.8-20.5l-12.6-3.3c-7.8-1.7-11.7-5.5-11.7-11.4 0-7.8 5.7-11.7 17-11.7 8 0 15.5 2.9 22.6 8.8l4.1-8.8c-6.7-6.7-15.5-10-26.7-10-8.8 0-15.8 2.1-21.1 6.3-5.2 4.2-7.9 9.6-7.9 16.3 0 10.3 6.6 17.1 19.6 20.2l12.9 2.9c8.6 2.2 12.9 6 12.9 11.5 0 7.6-5.7 11.4-17.3 11.4-10.3 0-19.2-3-26.6-8.8zm187.2-38.7c0-19.9-8.3-29.9-24.9-29.9-11.9 0-20.3 4.9-25.2 14.7-3.7-9.8-11.4-14.7-23.2-14.7-11.3 0-19.3 5.1-24 15.3l-1.1-13.5h-11.5c0.8 8.6 1.2 15.7 1.2 21.4v54.2h12v-43.1c0-7.4 1.9-13.3 5.6-17.6 3.7-4.3 8.8-6.4 15.2-6.4 10.4 0 15.5 6.7 15.5 20.2v46.9h12.3v-43.1c0-7.4 1.8-13.3 5.5-17.6 3.6-4.3 8.5-6.4 14.8-6.4 5.4 0 9.4 1.6 12 4.8 2.5 3.2 3.8 8.4 3.8 15.4v46.9h12zm35.7-46.3v-13.8h-14.6v13.8zm-1.5 18.2h-12v75.5h12zm61.5 0h-21.6v-23.4l-12 4.1v19.3h-14.7v9.7h14.7v43.1c0 7.6 2 13.5 6 17.7 4 4.2 9.6 6.3 16.8 6.3 3.8 0 7.3-0.6 10.5-1.8v-10.2c-2.9 1-5.6 1.5-8.2 1.5-8.7 0-13.1-5.1-13.1-15.3v-41.3h21.6zm77.7 28.1c0-19.9-9.1-29.8-27.3-29.8-11.9 0-20.4 4.6-25.5 14v-47.2h-12v110.5h12v-43.1c0-7.2 2.2-13 6.5-17.4 4.3-4.4 9.9-6.6 16.7-6.6 11.7 0 17.6 6.7 17.6 20.2v46.9h12zm39.5-38.1c0-10 4.3-14.9 12.9-14.9 2.8 0 5.3 0.4 7.6 1.1v-10.2c-3.5-1-6.8-1.5-9.9-1.5-15.1 0-22.6 8-22.6 24v11.5h-14.6v9.6h14.6v66h12v-66h18.5v-9.6h-18.5zm87.9 23.1c-5.1-9.9-13.6-14.9-25.5-14.9-9.9 0-18 3.6-24.1 11-6.2 7.3-9.3 16.8-9.3 28.5 0 11.7 3.1 21.2 9.1 28.3 6.1 7.1 14.2 10.7 24.3 10.7 12.5 0 21-5 25.5-15v13.8h12v-75.6h-12zm0 24.3c0 9.2-2 16.4-6 21.4-4 5.1-9.7 7.7-17.1 7.7-7.4 0-13.2-2.5-17.3-7.5-4.1-5-6.2-12.1-6.2-21.3 0-9.1 2.1-16.3 6.2-21.5 4.1-5.2 9.9-7.8 17.3-7.8 15.4 0 23.1 9.7 23.1 29zm95.8-9.3c0-20-9.1-29.9-27.2-29.9-12.5 0-21.2 5.2-26.1 15.5l-1.2-13.8h-11.4c0.8 8.6 1.2 15.8 1.2 21.4v54.2h12v-43c0-7.3 2.1-13.1 6.4-17.5 4.3-4.4 9.9-6.6 16.7-6.6 11.8 0 17.6 6.8 17.6 20.3v46.8h12zm17.6 38.7c7.6 6.6 17.7 10 30.2 10 9 0 16.1-2 21.5-5.9 5.4-3.9 8.1-9.2 8.1-15.8 0-10.2-7-17-20.8-20.5l-12.6-3.2c-7.8-1.8-11.8-5.6-11.8-11.5 0-7.8 5.7-11.7 17-11.7 8 0 15.6 2.9 22.6 8.8l4.1-8.8c-6.6-6.6-15.5-10-26.7-10-8.7 0-15.8 2.1-21.1 6.3-5.2 4.2-7.9 9.7-7.9 16.3 0 10.4 6.6 17.1 19.7 20.2l12.9 3c8.6 2.1 12.8 5.9 12.8 11.4 0 7.6-5.7 11.4-17.2 11.4-10.4 0-19.3-2.9-26.7-8.8z"/>
</svg>